<svg id="Layer_1" data-name="Layer 1" xmlns="http://www.w3.org/2000/svg" viewBox="0 0 980.05 138.18"><defs><style>.cls-1{fill:none;}.cls-2{fill:#c0272d;}.cls-3{fill:#ca2026;}.cls-4{fill:#676767;}</style></defs><title>Transpo_Logo2</title><path class="cls-1" d="M233,472.9c-3.89,0-10.38,8.91-13.37,28.61l26.75.12C243.44,481.85,237,472.9,233,472.9Z" transform="translate(-146.4 -464.59)"/><path class="cls-1" d="M233,570.66c3.93,0,10.39-8.93,13.37-28.65l-26.72.13C222.66,561.77,229.11,570.66,233,570.66Z" transform="translate(-146.4 -464.59)"/><path class="cls-1" d="M269.6,509c.36,4.19.55,8.49.55,12.82s-.19,8.62-.55,12.81h25.63a50.15,50.15,0,0,0,0-25.63Z" transform="translate(-146.4 -464.59)"/><path class="cls-2" d="M301.88,503.81l-.89-2.7H286.35a57.2,57.2,0,0,0-99.94-12.47l-.22.36c-.23.4-1.07,1.92-1.79,3.41l8.93,0a49.49,49.49,0,0,1,26.94-18.33c-4.26,7-7,17.23-8.5,27.36l-65.34-.29,0,7.82,108.86.47-.51-4.37c-1.3-11.38-4.21-23.2-9-31a49.25,49.25,0,0,1,32.09,27h-17l.52,4.39a141.45,141.45,0,0,1,0,32.56l-.52,4.38h17a49.22,49.22,0,0,1-32.09,27c4.74-7.81,7.65-19.61,9-31l.5-4.37-82.15.39,0,7.82,38.64-.18c1.47,10.13,4.24,20.28,8.47,27.26a49.55,49.55,0,0,1-26.9-18.29l-9.39,0a57.17,57.17,0,0,0,102.4-8.66H301l.89-2.69A57.79,57.79,0,0,0,301.88,503.81Zm-82.22-2.3c3-19.7,9.48-28.61,13.37-28.61s10.41,9,13.38,28.73ZM246.4,542c-3,19.72-9.44,28.65-13.37,28.65s-10.37-8.89-13.35-28.52Zm48.83-7.42H269.6c.36-4.19.55-8.48.55-12.81s-.19-8.63-.55-12.82h25.63A50.15,50.15,0,0,1,295.23,534.59Z" transform="translate(-146.4 -464.59)"/><rect class="cls-2" x="13.37" y="53.28" width="95.15" height="7.82"/><path class="cls-3" d="M365,492H348.54V475.33h51V492H383v76.27H365Z" transform="translate(-146.4 -464.59)"/><path class="cls-3" d="M409.09,476.71a108.25,108.25,0,0,1,19.72-1.79c9.93,0,18.76,1.38,24.83,6.89,5.65,5.11,7.31,11.31,7.31,19.31,0,9.93-4.83,18.9-14.35,23.31v.28c6.35,2.48,9.52,8.41,11.31,18.34,1.8,10.35,4.28,21.79,5.93,25.24H445c-1.11-2.62-3.17-12-4.55-22.2-1.66-11.59-4.55-14.9-10.62-14.9h-2.62v37.1H409.09Zm18.07,40.55h3.17c7.86,0,12.41-6.34,12.41-14.48,0-7.86-3.17-13.52-11.31-13.79a12.65,12.65,0,0,0-4.27.55Z" transform="translate(-146.4 -464.59)"/><path class="cls-3" d="M488.67,547.05l-4.14,21.24H467l20.13-93h21.66l18.07,93H509.36l-4-21.24Zm15-14.07-3-19.44c-1-5.66-2.21-14.9-3-21.11h-.42c-1,6.21-2.34,15.87-3.31,21.24L490.46,533Z" transform="translate(-146.4 -464.59)"/><path class="cls-3" d="M537.08,568.29v-93h16.56L568,511.74c2.76,7.18,7.31,19.18,9.93,27.17h.28c-.56-9.79-1.8-25.93-1.8-43V475.33h15.86v93H575.7L561.5,533c-3-7.86-7.31-19.58-9.38-28h-.28c.42,9.37,1.11,23.72,1.11,42.34v21Z" transform="translate(-146.4 -464.59)"/><path class="cls-3" d="M606.19,549.81c3.72,2.07,10.06,3.59,15.31,3.59,8.55,0,12.69-4.42,12.69-10.49,0-6.75-4.14-10.06-12-15.17-12.69-7.72-17.52-17.51-17.52-25.93,0-14.89,9.93-27.31,29.38-27.31,6.07,0,11.86,1.66,14.62,3.31l-2.9,15.59a22.11,22.11,0,0,0-11.86-3.17c-7.72,0-11.45,4.69-11.45,9.65,0,5.52,2.76,8.42,12.83,14.48,12.27,7.45,16.83,16.83,16.83,26.62,0,17-12.56,28.14-30.76,28.14-7.45,0-14.76-1.93-17.79-3.72Z" transform="translate(-146.4 -464.59)"/><path class="cls-3" d="M662.6,476.71a94.8,94.8,0,0,1,18.9-1.79c10.75,0,19.17,1.52,25.24,7.17,5.51,4.83,8,12.55,8,20.41,0,10.07-3,17.11-7.87,22.35-5.79,6.07-15.17,8.82-22.62,8.82h-3.58v34.62H662.6Zm18.07,42.21a9.57,9.57,0,0,0,2.89.27c9.11,0,13.25-6.48,13.25-15.17,0-8.14-3.31-14.48-11.73-14.48a13.29,13.29,0,0,0-4.41.69Z" transform="translate(-146.4 -464.59)"/><path class="cls-3" d="M780.53,520.16c0,35-12.42,49.24-30.07,49.24-21.1,0-29.38-22.35-29.38-47.86s10.07-47.31,30.62-47.31C774.18,474.23,780.53,498.92,780.53,520.16Zm-40.69,1.65c0,21.1,4,31.86,11.31,31.86,7.58,0,10.48-13.79,10.48-32.69,0-16.27-2.48-31-10.62-31C743.84,490,739.84,501.81,739.84,521.81Z" transform="translate(-146.4 -464.59)"/><path class="cls-4" d="M834.32,464.85V602.77h-9.24V464.85Z" transform="translate(-146.4 -464.59)"/><path class="cls-4" d="M929.49,566a47.85,47.85,0,0,1-16.55,3.17c-8.14,0-15.73-2.21-21.94-9.1-6.75-7.18-11.3-20-11.17-37,.14-36.13,18.62-48.55,35-48.55,5.79,0,10.34,1.11,13.24,2.62l-2.35,9.11A23.26,23.26,0,0,0,915,484c-11.58,0-24.13,9.24-24.13,38.07S901.76,560,912.94,560a15.11,15.11,0,0,0,6.48-1.11V528.57h-12v-8.83h22.07Z" transform="translate(-146.4 -464.59)"/><path class="cls-4" d="M943.28,518.78c0-5.66-.41-12.28-.55-17.24h9.51L952.8,512h.27c2.21-6.35,7.86-11.59,14.07-11.59.83,0,1.52.14,2.21.14v10.9a11,11,0,0,0-2.21-.14c-6.76,0-11.72,6.21-12.83,13.93a41.4,41.4,0,0,0-.41,6.07v37H943.28Z" transform="translate(-146.4 -464.59)"/><path class="cls-4" d="M1016.66,534.92c0,25.79-12,34.48-22.21,34.48-12,0-21.65-10.9-21.65-34.35,0-24.41,10.89-34.62,22.34-34.62C1007,500.43,1016.66,511.61,1016.66,534.92Zm-33.24,0c0,11,1.93,26.06,11.58,26.06,9.1,0,10.9-15.72,10.9-26.06S1004.1,509,994.73,509,983.42,524.71,983.42,534.92Z" transform="translate(-146.4 -464.59)"/><path class="cls-4" d="M1068.52,550.09c0,7.44.41,13.24.55,18.2h-9.24l-.69-7h-.28c-2.07,3.31-7.17,8.14-14.34,8.14-11.73,0-16.28-9.11-16.28-25.66v-42.2h10.62v40.68c0,10.49,1.66,18.21,9,18.21,6.2,0,9-5.79,9.51-8.83a27.11,27.11,0,0,0,.56-6.06v-44h10.62Z" transform="translate(-146.4 -464.59)"/><path class="cls-4" d="M1083.28,522.36c0-10.2-.42-16.13-.56-20.82h9.52l.55,8.55h.28c3.58-7.17,8.83-9.66,14.07-9.66,11.58,0,19.31,12.42,19.31,34.35,0,24.68-10.21,34.62-20.69,34.62-6.21,0-9.8-4-11.59-7.73h-.27v33.1h-10.62Zm10.62,21.38a22.69,22.69,0,0,0,.41,5.52c2.07,9.52,6.9,11.31,9.79,11.31,8.83,0,11.59-12.14,11.59-25.65,0-13.8-3.31-25.38-11.73-25.38-4.82,0-9.1,6.07-9.79,12.13a31.55,31.55,0,0,0-.27,5.11Z" transform="translate(-146.4 -464.59)"/></svg>