<svg id="Layer_1" data-name="Layer 1" xmlns="http://www.w3.org/2000/svg" viewBox="0 0 984.6 149.93"><defs><style>.cls-1{fill:none;}.cls-2{fill:#c0272d;}.cls-3{font-size:137.93px;font-family:MyriadPro-BoldCond, Myriad Pro;}.cls-4{fill:#ca2026;font-weight:700;}.cls-5,.cls-6{font-family:MyriadPro-Regular, Myriad Pro;}.cls-5,.cls-9{letter-spacing:0em;}.cls-6,.cls-7,.cls-8,.cls-9{fill:#676767;}.cls-6{letter-spacing:0em;}.cls-7,.cls-8,.cls-9{font-family:MyriadPro-Cond, Myriad Pro;}.cls-7{letter-spacing:0em;}.cls-8{letter-spacing:-0.01em;}</style></defs><title>Transpo_Logo</title><path class="cls-1" d="M233,472.9c-3.89,0-10.38,8.91-13.37,28.61l26.75.12C243.44,481.85,237,472.9,233,472.9Z" transform="translate(-146.4 -452.84)"/><path class="cls-1" d="M233,570.66c3.93,0,10.39-8.93,13.37-28.65l-26.72.13C222.66,561.77,229.11,570.66,233,570.66Z" transform="translate(-146.4 -452.84)"/><path class="cls-1" d="M269.6,509c.36,4.19.55,8.49.55,12.82s-.19,8.62-.55,12.81h25.63a50.15,50.15,0,0,0,0-25.63Z" transform="translate(-146.4 -452.84)"/><path class="cls-2" d="M301.88,503.81l-.89-2.7H286.35a57.2,57.2,0,0,0-99.94-12.47l-.22.36c-.23.4-1.07,1.92-1.79,3.41l8.93,0a49.49,49.49,0,0,1,26.94-18.33c-4.26,7-7,17.23-8.5,27.36l-65.34-.29,0,7.82,108.86.47-.51-4.37c-1.3-11.38-4.21-23.2-9-31a49.25,49.25,0,0,1,32.09,27h-17l.52,4.39a141.45,141.45,0,0,1,0,32.56l-.52,4.38h17a49.22,49.22,0,0,1-32.09,27c4.74-7.81,7.65-19.61,9-31l.5-4.37-82.15.39,0,7.82,38.64-.18c1.47,10.13,4.24,20.28,8.47,27.26a49.55,49.55,0,0,1-26.9-18.29l-9.39,0a57.17,57.17,0,0,0,102.4-8.66H301l.89-2.69A57.79,57.79,0,0,0,301.88,503.81Zm-82.22-2.3c3-19.7,9.48-28.61,13.37-28.61s10.41,9,13.38,28.73ZM246.4,542c-3,19.72-9.44,28.65-13.37,28.65s-10.37-8.89-13.35-28.52Zm48.83-7.42H269.6c.36-4.19.55-8.48.55-12.81s-.19-8.63-.55-12.82h25.63A50.15,50.15,0,0,1,295.23,534.59Z" transform="translate(-146.4 -452.84)"/><rect class="cls-2" x="13.37" y="65.02" width="95.15" height="7.82"/><text class="cls-3" transform="translate(200.48 115.45)"><tspan class="cls-4">TRANSPO</tspan><tspan class="cls-5" x="437.09" y="0"> </tspan><tspan class="cls-6" x="466.33" y="0">|</tspan><tspan class="cls-5" x="499.3" y="0"> </tspan><tspan class="cls-7" x="528.54" y="0">G</tspan><tspan class="cls-8" x="589.09" y="0">r</tspan><tspan class="cls-9" x="621.36" y="0">oup</tspan></text></svg>